Complete name Ninja.Assassins.2009.DvDRip.XviD

Format : AVI
Format/Info : Audio Video Interleave
File size : 683 MiB
Duration : 1h 38mn
Overall bit rate : 967 Kbps
Original source form/Distributed : Ninja.Assassins.DvDR
Encoded by : Vice / Vicerock / Vicez
Subject : Ninja.Assassins.DvDRip.XviD
Recorded date : 1 July 2010 Time 00.05
Writing application : MEncoder SVN-r29352(20090610-gcc4.3.3)
Writing library : VirtualDub build 32618/release
Original source form/Name : Avi.XviD.Movies.DvDR
Comment : Vice,Movies,Collection

Video
ID : 0
Format : MPEG-4 Visual
Format profile : AdvancedSimple@L5
Format settings, BVOP : Yes
Format settings, QPel : No
Format settings, GMC : No warppoints
Format settings, Matrix : Default (H.263)
Muxing mode : Packed bitstream
Codec ID : XVID
Codec ID/Hint : XviD
Duration : 1h 38mn
Bit rate : 830 Kbps
Width : 640 pixels
Height : 360 pixels
Display aspect ratio : 16:9
Frame rate : 25.000 fps
Resolution : 24 bits
Colorimetry : 4:2:0
Scan type : Progressive
Bits/(Pixel*Frame) : 0.144
Stream size : 585 MiB (86%)
Writing library : XviD 1.1.2 (UTC 2006-11-01)

Audio
ID : 1
Format : MPEG Audio
Format version : Version 1
Format profile : Layer 3
Codec ID : 55
Codec ID/Hint : MP3
Duration : 1h 38mn
Bit rate mode : Constant
Bit rate : 128 Kbps
Channel(s) : 2 channels
Sampling rate : 44.1 KHz
Resolution : 16 bits
Stream size : 90.3 MiB (13%)
Alignment : Split accross interleaves
Interleave, duration : 40 ms (1.00 video frame)
Interleave, preload duration : 500 ms
Writing library : LAME3.98

Starring-> Rain,Naomie Harris,Ben Miles & Sho Kosugi
 
http://www.imdb.com/title/tt1186367/

Plot

Raizo (Rain) is raised by the Ozunu Clan to become the most lethal Ninja assassin in the world. As a child, Raizo being an orphan is taking by Lord Ozuno (Sho Kosugi) and is enrolled in severe brutal training. The only generosity he ever receives is from a kunoichi named Kiriko (Kylie Goldstein), with whom he develops a romantic bond. However, as time goes on, Kiriko becomes disenchanted with the Clan's routine, and wishes to abandon it for freedom. One rainy night, Kiriko decides to make her escape and encourages Raizo to join her; but he decides to stay. Branded as a traitor, Kiriko is caught and later executed in front of Raizo by her elder ninja brother Takeshi (Rick Yune). As a result of Kiriko's death, Raizo begins to harbor resentment and doubt towards the Clan. However, this happens all in flashback, and during this time period that we are speaking, another women assasin attempts to kill Raizo, and he calls her "Kiriko" and asks her, what is her clan

PLEASE SEED AND ENJOY THANKS

screen shots
 
http://img808.imageshack.us/img808/4584/ninjaassassinsxvidvicea.jpg 
http://img444.imageshack.us/img444/4584/ninjaassassinsxvidvicea.jpg 
http://img441.imageshack.us/img441/4584/ninjaassassinsxvidvicea.jpg 
http://img257.imageshack.us/img257/4584/ninjaassassinsxvidvicea.jpg 
http://img192.imageshack.us/img192/4584/ninjaassassinsxvidvicea.jpg 
http://img266.imageshack.us/img266/4584/ninjaassassinsxvidvicea.jpg

Check Out My Other Torrents
      
http://thepiratebay.org/user/vicerock/

